<?xml version="1.0" encoding="UTF-8" standalone="no"?>
<svg
   width="16"
   height="16"
   version="1.1"
   id="svg1"
   sodipodi:docname="folder_up.svg"
   inkscape:version="1.3 (1:1.3+202307231459+0e150ed6c4)"
   xmlns:inkscape="http://www.inkscape.org/namespaces/inkscape"
   xmlns:sodipodi="http://sodipodi.sourceforge.net/DTD/sodipodi-0.dtd"
   xmlns="http://www.w3.org/2000/svg"
   xmlns:svg="http://www.w3.org/2000/svg">
  <defs
     id="defs1" />
  <sodipodi:namedview
     id="namedview1"
     pagecolor="#ffffff"
     bordercolor="#666666"
     borderopacity="1.0"
     inkscape:showpageshadow="2"
     inkscape:pageopacity="0.0"
     inkscape:pagecheckerboard="0"
     inkscape:deskcolor="#d1d1d1"
     showgrid="false"
     inkscape:zoom="53.0625"
     inkscape:cx="8"
     inkscape:cy="8"
     inkscape:window-width="1920"
     inkscape:window-height="1114"
     inkscape:window-x="0"
     inkscape:window-y="46"
     inkscape:window-maximized="1"
     inkscape:current-layer="svg1" />
  <path
     style="display:inline;fill:#00ffff;stroke-width:0.0188457"
     d="M 7.4723204,15.050813 C 7.1481945,14.953185 6.8605117,14.749233 6.6712848,14.482921 6.5504905,14.312919 6.4378527,14.074208 6.4155581,13.940964 6.3941284,13.812891 6.3651405,10.46066 6.3621744,7.7675698 6.3612118,6.8934432 6.353195,6.1810757 6.3443594,6.1845309 6.335524,6.1879859 5.7944759,6.8141343 5.1420308,7.5759717 3.822273,9.1170065 3.4353971,9.5625756 3.2602597,9.7432273 3.1150368,9.8930226 2.925979,10.00867 2.6977229,10.087334 2.5370914,10.142693 2.5073149,10.146805 2.2614841,10.147579 1.9505682,10.148558 1.8365942,10.123621 1.583012,9.9991297 1.2061611,9.8141224 0.91607508,9.4694854 0.78862686,9.0553592 0.7345395,8.8796095 0.73877465,8.4238287 0.79615684,8.2449941 0.86379278,8.0342033 0.96779711,7.8551476 1.1489929,7.6375457 1.5716579,7.1299583 6.295488,1.5953938 6.6685132,1.1707297 6.9232224,0.88076016 7.1340915,0.73201823 7.4534747,0.61703683 7.6017683,0.56364951 8.0375734,0.54867734 8.2037886,0.59125966 8.5329911,0.67559744 8.7787059,0.8288464 9.0253109,1.1036318 c 0.3826386,0.4263639 5.3692801,6.2549568 5.6744461,6.6325284 0.10887,0.1347008 0.241641,0.4060421 0.281564,0.5754284 0.04252,0.1803935 0.03865,0.5409253 -0.0078,0.7223561 -0.114868,0.4491311 -0.482,0.858034 -0.923118,1.0281473 -0.197756,0.07626 -0.381337,0.102763 -0.624615,0.09017 -0.371507,-0.01924 -0.668132,-0.1557366 -0.95029,-0.4373032 -0.09348,-0.093286 -0.822811,-0.9320294 -1.620731,-1.8638739 L 9.4040047,6.1568222 9.3992908,7.2668681 c -0.015479,3.6450409 -0.042305,6.6036949 -0.060783,6.7038119 -0.024226,0.131261 -0.1519329,0.392311 -0.2707779,0.553507 -0.1712469,0.232272 -0.5147345,0.457164 -0.8158818,0.534185 -0.2124738,0.05434 -0.5860461,0.05072 -0.7795277,-0.0076 z"
     id="path4" />
</svg>
